<svg xmlns="http://www.w3.org/2000/svg" viewBox="0 0 24 24" fill="#FC6D26">
  <path d="M12 21.42l3.684-11.333H8.316L12 21.42z"/>
  <path d="M12 21.42l-3.684-11.333H1.684L12 21.42z"/>
  <path d="M1.684 10.087L.264 14.32a.827.827 0 00.3.925L12 21.42 1.684 10.087z"/>
  <path d="M1.684 10.087h6.632L6.947 1.665c-.203-.622-1.06-.622-1.263 0L1.684 10.087z"/>
  <path d="M12 21.42l3.684-11.333h6.632L12 21.42z"/>
  <path d="M22.316 10.087l1.42 4.233a.827.827 0 01-.3.925L12 21.42l10.316-11.333z"/>
  <path d="M22.316 10.087h-6.632l1.369-8.422c.203-.622 1.06-.622 1.263 0l3.999 8.422z"/>
</svg>