<?xml version="1.0" encoding="UTF-8"?>
<svg width="60" height="60" viewBox="0 0 60 60" fill="none" xmlns="http://www.w3.org/2000/svg">
  <!-- 背景圆角矩形 -->
  <rect width="60" height="60" rx="12" fill="#00D4AA"/>
  
  <!-- 主要聊天气泡 -->
  <path d="M12 18c0-2.2 1.8-4 4-4h20c2.2 0 4 1.8 4 4v12c0 2.2-1.8 4-4 4h-3l-4 4-4-4h-9c-2.2 0-4-1.8-4-4V18z" fill="white"/>
  
  <!-- 次要聊天气泡 -->
  <path d="M20 28c0-1.1 0.9-2 2-2h16c1.1 0 2 0.9 2 2v8c0 1.1-0.9 2-2 2h-6l-3 3-3-3h-4c-1.1 0-2-0.9-2-2v-8z" fill="white" opacity="0.8"/>
  
  <!-- 消息点 -->
  <circle cx="20" cy="24" r="1.5" fill="#00D4AA"/>
  <circle cx="26" cy="24" r="1.5" fill="#00D4AA"/>
  <circle cx="32" cy="24" r="1.5" fill="#00D4AA"/>
  
  <!-- 机器人标识 -->
  <rect x="42" y="12" width="6" height="6" rx="1" fill="#FF6B35"/>
  <circle cx="44" cy="14" r="0.5" fill="white"/>
  <circle cx="46" cy="14" r="0.5" fill="white"/>
  <rect x="43.5" y="15.5" width="1" height="1" fill="white"/>
  
  <!-- 企业标识 -->
  <rect x="14" y="42" width="32" height="2" rx="1" fill="white" opacity="0.6"/>
  <rect x="18" y="46" width="24" height="1.5" rx="0.75" fill="white" opacity="0.4"/>
</svg>